<svg width="141" height="88" viewBox="0 0 141 88" fill="none" xmlns="http://www.w3.org/2000/svg">
<path d="M1.992 82V65.2H9.264C10.768 65.2 12.064 65.448 13.152 65.944C14.24 66.424 15.08 67.12 15.672 68.032C16.264 68.944 16.56 70.032 16.56 71.296C16.56 72.544 16.264 73.624 15.672 74.536C15.08 75.432 14.24 76.12 13.152 76.6C12.064 77.08 10.768 77.32 9.264 77.32H4.152L5.88 75.616V82H1.992ZM12.672 82L8.472 75.904H12.624L16.872 82H12.672ZM5.88 76.048L4.152 74.224H9.048C10.248 74.224 11.144 73.968 11.736 73.456C12.328 72.928 12.624 72.208 12.624 71.296C12.624 70.368 12.328 69.648 11.736 69.136C11.144 68.624 10.248 68.368 9.048 68.368H4.152L5.88 66.52V76.048ZM27.8004 82.288C26.4724 82.288 25.2404 82.072 24.1044 81.64C22.9844 81.208 22.0084 80.6 21.1764 79.816C20.3604 79.032 19.7204 78.112 19.2564 77.056C18.8084 76 18.5844 74.848 18.5844 73.6C18.5844 72.352 18.8084 71.2 19.2564 70.144C19.7204 69.088 20.3684 68.168 21.2004 67.384C22.0324 66.6 23.0084 65.992 24.1284 65.56C25.2484 65.128 26.4644 64.912 27.7764 64.912C29.1044 64.912 30.3204 65.128 31.4244 65.56C32.5444 65.992 33.5124 66.6 34.3284 67.384C35.1604 68.168 35.8084 69.088 36.2724 70.144C36.7364 71.184 36.9684 72.336 36.9684 73.6C36.9684 74.848 36.7364 76.008 36.2724 77.08C35.8084 78.136 35.1604 79.056 34.3284 79.84C33.5124 80.608 32.5444 81.208 31.4244 81.64C30.3204 82.072 29.1124 82.288 27.8004 82.288ZM27.7764 78.976C28.5284 78.976 29.2164 78.848 29.8404 78.592C30.4804 78.336 31.0404 77.968 31.5204 77.488C32.0004 77.008 32.3684 76.44 32.6244 75.784C32.8964 75.128 33.0324 74.4 33.0324 73.6C33.0324 72.8 32.8964 72.072 32.6244 71.416C32.3684 70.76 32.0004 70.192 31.5204 69.712C31.0564 69.232 30.5044 68.864 29.8644 68.608C29.2244 68.352 28.5284 68.224 27.7764 68.224C27.0244 68.224 26.3284 68.352 25.6884 68.608C25.0644 68.864 24.5124 69.232 24.0324 69.712C23.5524 70.192 23.1764 70.76 22.9044 71.416C22.6484 72.072 22.5204 72.8 22.5204 73.6C22.5204 74.384 22.6484 75.112 22.9044 75.784C23.1764 76.44 23.5444 77.008 24.0084 77.488C24.4884 77.968 25.0484 78.336 25.6884 78.592C26.3284 78.848 27.0244 78.976 27.7764 78.976ZM43.3399 82V75.136L44.2279 77.488L36.8359 65.2H40.9639L46.6279 74.632H44.2519L49.9399 65.2H53.7559L46.3639 77.488L47.2279 75.136V82H43.3399ZM52.1434 82L59.6314 65.2H63.4714L70.9834 82H66.9034L60.7594 67.168H62.2954L56.1274 82H52.1434ZM55.8874 78.4L56.9194 75.448H65.5594L66.6154 78.4H55.8874ZM72.7264 82V65.2H76.6144V78.832H85.0384V82H72.7264ZM99.5276 82.288C98.1836 82.288 96.8956 82.112 95.6636 81.76C94.4316 81.392 93.4396 80.92 92.6876 80.344L94.0076 77.416C94.7276 77.928 95.5756 78.352 96.5516 78.688C97.5436 79.008 98.5436 79.168 99.5516 79.168C100.32 79.168 100.936 79.096 101.4 78.952C101.88 78.792 102.232 78.576 102.456 78.304C102.68 78.032 102.792 77.72 102.792 77.368C102.792 76.92 102.616 76.568 102.264 76.312C101.912 76.04 101.448 75.824 100.872 75.664C100.296 75.488 99.6556 75.328 98.9516 75.184C98.2636 75.024 97.5676 74.832 96.8636 74.608C96.1756 74.384 95.5436 74.096 94.9676 73.744C94.3916 73.392 93.9196 72.928 93.5516 72.352C93.1996 71.776 93.0236 71.04 93.0236 70.144C93.0236 69.184 93.2796 68.312 93.7916 67.528C94.3196 66.728 95.1036 66.096 96.1436 65.632C97.1996 65.152 98.5196 64.912 100.104 64.912C101.16 64.912 102.2 65.04 103.224 65.296C104.248 65.536 105.152 65.904 105.936 66.4L104.736 69.352C103.952 68.904 103.168 68.576 102.384 68.368C101.6 68.144 100.832 68.032 100.08 68.032C99.3276 68.032 98.7116 68.12 98.2316 68.296C97.7516 68.472 97.4076 68.704 97.1996 68.992C96.9916 69.264 96.8876 69.584 96.8876 69.952C96.8876 70.384 97.0636 70.736 97.4156 71.008C97.7676 71.264 98.2316 71.472 98.8076 71.632C99.3836 71.792 100.016 71.952 100.704 72.112C101.408 72.272 102.104 72.456 102.792 72.664C103.496 72.872 104.136 73.152 104.712 73.504C105.288 73.856 105.752 74.32 106.104 74.896C106.472 75.472 106.656 76.2 106.656 77.08C106.656 78.024 106.392 78.888 105.864 79.672C105.336 80.456 104.544 81.088 103.488 81.568C102.448 82.048 101.128 82.288 99.5276 82.288ZM112.792 78.16L112.576 73.672L120.616 65.2H124.936L117.688 73L115.528 75.304L112.792 78.16ZM109.312 82V65.2H113.176V82H109.312ZM120.808 82L114.832 74.68L117.376 71.92L125.344 82H120.808ZM130.012 82V75.136L130.9 77.488L123.508 65.2H127.636L133.3 74.632H130.924L136.612 65.2H140.428L133.036 77.488L133.9 75.136V82H130.012Z" fill="#1F1C1C"/>
<path d="M32.598 54V39.4545H34.7926V45.7756H42.044V39.4545H44.2457V54H42.044V47.6577H34.7926V54H32.598ZM60.0767 46.7273C60.0767 48.2803 59.7926 49.6155 59.2244 50.733C58.6563 51.8456 57.8774 52.7027 56.8878 53.304C55.9029 53.9006 54.7831 54.1989 53.5284 54.1989C52.2689 54.1989 51.1444 53.9006 50.1548 53.304C49.17 52.7027 48.3935 51.8433 47.8253 50.7259C47.2571 49.6084 46.973 48.2756 46.973 46.7273C46.973 45.1742 47.2571 43.8414 47.8253 42.7287C48.3935 41.6113 49.17 40.7543 50.1548 40.1577C51.1444 39.5563 52.2689 39.2557 53.5284 39.2557C54.7831 39.2557 55.9029 39.5563 56.8878 40.1577C57.8774 40.7543 58.6563 41.6113 59.2244 42.7287C59.7926 43.8414 60.0767 45.1742 60.0767 46.7273ZM57.9034 46.7273C57.9034 45.5436 57.7116 44.5469 57.3281 43.7372C56.9493 42.9228 56.4285 42.3073 55.7656 41.8906C55.1075 41.4692 54.3617 41.2585 53.5284 41.2585C52.6903 41.2585 51.9422 41.4692 51.2841 41.8906C50.6259 42.3073 50.1051 42.9228 49.7216 43.7372C49.3428 44.5469 49.1534 45.5436 49.1534 46.7273C49.1534 47.911 49.3428 48.91 49.7216 49.7244C50.1051 50.5341 50.6259 51.1496 51.2841 51.571C51.9422 51.9877 52.6903 52.196 53.5284 52.196C54.3617 52.196 55.1075 51.9877 55.7656 51.571C56.4285 51.1496 56.9493 50.5341 57.3281 49.7244C57.7116 48.91 57.9034 47.911 57.9034 46.7273ZM61.4705 41.3438V39.4545H72.7276V41.3438H68.1893V54H66.0018V41.3438H61.4705ZM75.2152 54V39.4545H84.3345V41.3438H77.4098V45.7756H83.8587V47.6577H77.4098V52.1108H84.4197V54H75.2152ZM87.266 54V39.4545H89.4606V52.1108H96.0515V54H87.266ZM106.488 43.2756C106.413 42.6032 106.1 42.0824 105.551 41.7131C105.002 41.339 104.31 41.152 103.477 41.152C102.88 41.152 102.364 41.2467 101.929 41.4361C101.493 41.6207 101.154 41.8764 100.913 42.2031C100.676 42.5251 100.558 42.892 100.558 43.304C100.558 43.6496 100.638 43.9479 100.799 44.1989C100.965 44.4498 101.181 44.6605 101.446 44.831C101.716 44.9967 102.004 45.1364 102.312 45.25C102.62 45.3589 102.916 45.4489 103.2 45.5199L104.62 45.8892C105.084 46.0028 105.56 46.1567 106.048 46.3509C106.536 46.545 106.988 46.8007 107.404 47.1179C107.821 47.4351 108.157 47.8281 108.413 48.2969C108.673 48.7656 108.804 49.3267 108.804 49.9801C108.804 50.804 108.591 51.5355 108.164 52.1747C107.743 52.8139 107.13 53.3182 106.325 53.6875C105.525 54.0568 104.556 54.2415 103.42 54.2415C102.331 54.2415 101.389 54.0687 100.593 53.723C99.7979 53.3774 99.1753 52.8873 98.7255 52.2528C98.2757 51.6136 98.0271 50.8561 97.9798 49.9801H100.181C100.224 50.5057 100.395 50.9437 100.693 51.294C100.996 51.6397 101.382 51.8977 101.85 52.0682C102.324 52.2339 102.842 52.3168 103.406 52.3168C104.026 52.3168 104.578 52.2197 105.061 52.0256C105.548 51.8267 105.932 51.5521 106.211 51.2017C106.491 50.8466 106.63 50.4323 106.63 49.9588C106.63 49.5279 106.507 49.1752 106.261 48.9006C106.02 48.6259 105.69 48.3987 105.274 48.2188C104.862 48.0388 104.395 47.8802 103.875 47.7429L102.156 47.2741C100.991 46.9569 100.068 46.4905 99.386 45.875C98.7089 45.2595 98.3704 44.4451 98.3704 43.4318C98.3704 42.5937 98.5977 41.8622 99.0522 41.2372C99.5067 40.6122 100.122 40.1269 100.899 39.7812C101.675 39.4309 102.551 39.2557 103.527 39.2557C104.511 39.2557 105.38 39.4285 106.133 39.7741C106.891 40.1198 107.487 40.5956 107.923 41.2017C108.359 41.803 108.586 42.4943 108.605 43.2756H106.488Z" fill="#100F0F"/>
<path d="M4 52L66.2672 4.26613C68.7806 2.3394 72.2745 2.34011 74.787 4.26785L137 52" stroke="#FF9838" strokeWidth="5" strokeLinecap="round"/>
</svg>
