<svg version="1.1" xmlns="http://www.w3.org/2000/svg" xmlns:xlink="http://www.w3.org/1999/xlink" width="277.28997802734375" height="54.239990234375"><defs></defs><g transform="translate(-142.05796813964844,28.082000732421875)"><rect fill="rgb(23,21,21)" stroke="none" x="0" y="0" width="277.28997802734375" height="54.239990234375" fill-opacity="1" transform="translate(142.05796813964844,-28.082000732421875)"></rect><g transform="translate(139.48795318603516,27.288002014160156) rotate(0,0,0) translate(-139.48795318603516,-27.288002014160156) matrix(1,0,0,1,139.48795318603516,27.288002014160156)"><path fill="rgb(255,255,255)" fill-opacity="1" d="M45.86-48.89L45.86-48.89Q45.86-50.57 44.33-52.06L44.33-52.06Q42.12-54.17 38.23-54.17L38.23-54.17Q34.82-54.17 30.70-52.68L30.70-52.68Q28.54-51.91 26.95-50.57L26.95-50.57Q24.50-48.46 24.50-46.34L24.50-46.34Q24.50-43.51 28.10-41.26L28.10-41.26Q29.45-40.44 33.50-38.59Q37.56-36.74 39.43-35.59L39.43-35.59Q42.26-33.86 43.34-31.90Q44.42-29.93 44.42-28.25L44.42-28.25Q44.42-25.85 42.84-23.35L42.84-23.35Q40.06-18.89 34.68-15.67L34.68-15.67Q28.49-11.93 19.75-11.93L19.75-11.93Q11.35-11.93 6.41-16.20L6.41-16.20Q2.57-19.46 2.57-24.60L2.57-24.60Q2.57-27.86 4.94-31.80Q7.32-35.74 10.78-37.37L10.78-37.37Q11.50-37.66 11.86-37.56Q12.22-37.46 11.26-36.65L11.26-36.65Q9.19-35.02 7.94-33.05L7.94-33.05Q5.26-28.82 5.26-23.88L5.26-23.88Q5.26-20.62 7.08-18.17L7.08-18.17Q10.34-13.80 18.41-13.22L18.41-13.22Q19.32-13.13 21.12-13.13Q22.92-13.13 26.02-13.78Q29.11-14.42 31.99-15.91L31.99-15.91Q38.18-19.18 40.01-24.36L40.01-24.36Q40.58-25.90 40.58-27.34L40.58-27.34Q40.58-30.60 37.66-33.10L37.66-33.10Q36.07-34.34 31.20-36.43Q26.33-38.52 24.65-39.62L24.65-39.62Q20.95-42.12 20.95-45.53L20.95-45.53Q20.95-48.50 24.26-51.34L24.26-51.34Q29.02-55.37 37.70-55.37L37.70-55.37Q41.78-55.37 44.35-54.14Q46.92-52.92 47.50-50.47L47.50-50.47Q47.59-49.99 47.59-49.51L47.59-49.51Q47.59-47.64 45.86-46.15L45.86-46.15Q44.66-45.19 42.65-44.62L42.65-44.62Q41.78-44.38 41.69-44.81L41.69-44.81Q41.59-45.43 42.89-45.58L42.89-45.58Q45.19-45.86 45.72-47.88L45.72-47.88Q45.86-48.41 45.86-48.89ZM63.24-29.30Q62.38-28.44 60.79-25.39Q59.21-22.34 58.90-20.83Q58.58-19.32 58.58-18.38Q58.58-17.45 59.30-17.45L59.30-17.45Q60.22-17.45 61.56-19.13L61.56-19.13Q63.53-21.58 65.45-25.51L65.45-25.51Q65.64-25.94 65.88-25.99L65.88-25.99Q66.26-26.14 66.26-25.70L66.26-25.70Q66.26-25.46 66.12-25.13L66.12-25.13Q61.70-16.20 58.68-16.20L58.68-16.20Q57.29-16.20 56.42-17.54L56.42-17.54Q55.99-18.26 55.99-19.46Q55.99-20.66 56.47-22.39L56.47-22.39Q52.63-16.20 49.85-16.20L49.85-16.20Q49.08-16.20 48.46-16.68L48.46-16.68Q47.02-17.69 47.02-20.14L47.02-20.14Q47.02-24.84 51.10-29.69L51.10-29.69Q53.40-32.38 56.76-33.19L56.76-33.19Q57.67-33.43 58.49-33.43L58.49-33.43Q60.70-33.43 62.23-31.90L62.23-31.90Q62.71-31.37 62.52-30.89Q62.33-30.41 61.70-30.50L61.70-30.50Q61.18-32.23 59.40-32.23L59.40-32.23Q57.34-32.23 54.31-28.97L54.31-28.97Q52.58-27.05 51.10-24.46L51.10-24.46Q49.22-21.34 49.22-19.46Q49.22-17.59 50.42-17.59L50.42-17.59Q53.30-17.59 57.96-26.42L57.96-26.42Q58.87-28.20 59.50-28.85Q60.12-29.50 61.08-29.50L61.08-29.50Q61.27-29.50 62.06-29.35Q62.86-29.21 63.24-29.30L63.24-29.30ZM65.11-24.84L67.66-30.36Q67.80-30.65 67.80-31.13Q67.80-31.61 67.18-32.38L67.18-32.38L69.82-32.42Q70.92-32.42 71.11-32.02Q71.30-31.61 70.82-30.74L70.82-30.74L66.98-21.77Q65.78-18.94 64.01-15.43L64.01-15.43Q65.88-16.15 66.74-16.54Q67.61-16.92 68.83-17.93Q70.06-18.94 70.94-20.26Q71.83-21.58 73.94-25.56L73.94-25.56Q74.28-26.23 74.54-26.09Q74.81-25.94 74.81-25.70Q74.81-25.46 74.02-23.86Q73.22-22.25 72.41-20.86Q71.59-19.46 70.30-18.02Q69.00-16.58 67.42-15.72Q65.83-14.86 63.19-13.90L63.19-13.90Q59.50-7.18 55.70-4.01L55.70-4.01Q54.26-2.81 52.30-1.97Q50.33-1.13 48.19-1.13Q46.06-1.13 44.90-2.02Q43.75-2.90 43.75-4.15Q43.75-5.40 44.47-6.98L44.47-6.98Q45.72-9.43 48.98-10.92L48.98-10.92Q51.43-12.07 55.46-13.06Q59.50-14.04 60.65-14.38L60.65-14.38Q61.85-16.44 62.06-16.90Q62.28-17.35 65.54-24.07L65.54-24.07Q64.78-24.07 65.11-24.84L65.11-24.84ZM45.38-5.88L45.38-5.88Q44.86-4.82 44.86-3.96Q44.86-3.10 45.53-2.59Q46.20-2.09 47.16-2.09L47.16-2.09Q49.94-2.09 53.16-4.97L53.16-4.97Q57.67-9.00 59.74-12.84L59.74-12.84Q51.77-10.73 49.80-9.86L49.80-9.86Q46.68-8.52 45.38-5.88ZM72.02-34.97Q71.35-34.39 70.54-34.39Q69.72-34.39 69.29-34.92Q68.86-35.45 68.86-35.83Q68.86-36.22 68.93-36.70Q69.00-37.18 69.67-37.75Q70.34-38.33 71.16-38.33Q71.98-38.33 72.43-37.82Q72.89-37.32 72.89-36.94Q72.89-36.55 72.79-36.05Q72.70-35.54 72.02-34.97ZM88.54-29.30Q87.67-28.44 86.09-25.39Q84.50-22.34 84.19-20.83Q83.88-19.32 83.88-18.38Q83.88-17.45 84.60-17.45L84.60-17.45Q85.51-17.45 86.86-19.13L86.86-19.13Q88.82-21.58 90.74-25.51L90.74-25.51Q90.94-25.94 91.18-25.99L91.18-25.99Q91.56-26.14 91.56-25.70L91.56-25.70Q91.56-25.46 91.42-25.13L91.42-25.13Q87.00-16.20 83.98-16.20L83.98-16.20Q82.58-16.20 81.72-17.54L81.72-17.54Q81.29-18.26 81.29-19.46Q81.29-20.66 81.77-22.39L81.77-22.39Q77.93-16.20 75.14-16.20L75.14-16.20Q74.38-16.20 73.75-16.68L73.75-16.68Q72.31-17.69 72.31-20.14L72.31-20.14Q72.31-24.84 76.39-29.69L76.39-29.69Q78.70-32.38 82.06-33.19L82.06-33.19Q82.97-33.43 83.78-33.43L83.78-33.43Q85.99-33.43 87.53-31.90L87.53-31.90Q88.01-31.37 87.82-30.89Q87.62-30.41 87.00-30.50L87.00-30.50Q86.47-32.23 84.70-32.23L84.70-32.23Q82.63-32.23 79.61-28.97L79.61-28.97Q77.88-27.05 76.39-24.46L76.39-24.46Q74.52-21.34 74.52-19.46Q74.52-17.59 75.72-17.59L75.72-17.59Q78.60-17.59 83.26-26.42L83.26-26.42Q84.17-28.20 84.79-28.85Q85.42-29.50 86.38-29.50L86.38-29.50Q86.57-29.50 87.36-29.35Q88.15-29.21 88.54-29.30L88.54-29.30ZM105.24-32.04L105.24-32.04Q99.34-21.67 99.34-18.50L99.34-18.50Q99.34-17.26 100.25-17.26L100.25-17.26Q102.70-17.26 106.82-25.56L106.82-25.56Q107.11-26.23 107.40-26.09Q107.69-25.94 107.69-25.70Q107.69-25.46 107.50-25.13L107.50-25.13Q104.95-19.99 103.20-18.05Q101.45-16.10 99.70-16.10Q97.94-16.10 97.03-17.45L97.03-17.45Q96.55-18.07 96.55-19.15Q96.55-20.23 97.03-21.77Q97.51-23.30 99.67-26.76L99.67-26.76Q100.20-27.62 100.20-28.13Q100.20-28.63 99.38-28.63Q98.57-28.63 96.26-26.47L96.26-26.47Q92.81-23.30 89.59-16.97L89.59-16.97Q89.30-16.49 88.94-16.37Q88.58-16.25 87.53-16.20Q86.47-16.15 86.14-15.96L86.14-15.96Q86.90-17.50 89.16-22.25L89.16-22.25Q93.19-30.65 94.44-31.85L94.44-31.85Q95.02-32.42 96.02-32.42L96.02-32.42Q96.22-32.42 97.01-32.28Q97.80-32.14 98.18-32.23L98.18-32.23Q96.41-31.27 92.38-23.21L92.38-23.21Q94.63-25.99 96.48-27.65Q98.33-29.30 100.92-30.72Q103.51-32.14 104.71-32.14L104.71-32.14Q105.00-32.14 105.24-32.04ZM116.95-19.08L116.95-19.08Q116.95-17.54 118.20-17.54L118.20-17.54Q120.46-17.54 124.20-25.08L124.20-25.08Q124.34-25.37 124.46-25.66Q124.58-25.94 124.85-26.04Q125.11-26.14 125.21-25.92Q125.30-25.70 125.11-25.22L125.11-25.22Q121.27-16.30 117.34-16.30L117.34-16.30Q116.04-16.30 115.27-17.45Q114.50-18.60 114.50-19.73Q114.50-20.86 114.74-21.82L114.74-21.82Q111.96-17.21 109.94-16.58L109.94-16.58Q109.37-16.34 108.82-16.34Q108.26-16.34 107.74-16.49L107.74-16.49Q105.38-17.11 105.38-20.23L105.38-20.23Q105.38-22.34 106.46-24.91Q107.54-27.48 109.51-29.83Q111.48-32.18 114.26-33.00L114.26-33.00Q115.27-33.34 116.64-33.34Q118.01-33.34 119.69-32.47L119.69-32.47Q122.95-38.62 125.26-43.85L125.26-43.85Q125.93-45.43 126.58-45.89Q127.22-46.34 127.78-46.34Q128.33-46.34 128.45-46.34Q128.57-46.34 129.36-46.22Q130.15-46.10 130.58-46.15L130.58-46.15Q129.48-45.14 124.73-36.36L124.73-36.36Q118.68-25.13 117.43-21.38L117.43-21.38Q116.95-19.99 116.95-19.08ZM119.30-31.70L119.30-31.70Q118.68-32.33 117.55-32.33Q116.42-32.33 114.41-30.65L114.41-30.65Q111.19-27.96 109.08-24.02L109.08-24.02Q107.69-21.43 107.69-19.75L107.69-19.75Q107.69-18.98 108.00-18.36Q108.31-17.74 108.98-17.74L108.98-17.74Q110.62-17.74 113.02-21.10Q115.42-24.46 119.30-31.70ZM126.55-23.69L126.55-23.69Q125.88-22.06 125.88-20.04L125.88-20.04Q125.88-18.70 126.48-17.90Q127.08-17.11 128.18-17.11L128.18-17.11Q132.55-17.11 136.10-25.32L136.10-25.32Q136.44-26.09 136.92-25.99L136.92-25.99Q137.11-25.94 137.11-25.75Q137.11-25.56 136.03-23.23Q134.95-20.90 133.85-19.46L133.85-19.46Q131.40-16.10 127.80-16.10L127.80-16.10Q125.88-16.10 124.54-17.35Q123.19-18.60 123.19-20.76Q123.19-22.92 124.22-25.34Q125.26-27.77 127.03-29.86Q128.81-31.94 131.11-32.90L131.11-32.90Q132.22-33.38 133.22-33.38Q134.23-33.38 135.10-32.81L135.10-32.81Q135.91-32.14 135.91-31.32L135.91-31.32Q135.91-28.44 132.46-25.80L132.46-25.80Q131.40-24.98 129.48-24.34Q127.56-23.69 126.55-23.69ZM134.62-31.37L134.62-31.37Q134.62-32.33 133.85-32.33L133.85-32.33Q132.50-32.33 129.77-29.02L129.77-29.02Q128.14-27.00 126.89-24.50L126.89-24.50Q127.70-24.50 129.26-25.08Q130.82-25.66 131.98-26.62L131.98-26.62Q134.62-28.87 134.62-31.37ZM138.36-23.69L138.36-23.69Q137.69-22.06 137.69-20.04L137.69-20.04Q137.69-18.70 138.29-17.90Q138.89-17.11 139.99-17.11L139.99-17.11Q144.36-17.11 147.91-25.32L147.91-25.32Q148.25-26.09 148.73-25.99L148.73-25.99Q148.92-25.94 148.92-25.75Q148.92-25.56 147.84-23.23Q146.76-20.90 145.66-19.46L145.66-19.46Q143.21-16.10 139.61-16.10L139.61-16.10Q137.69-16.10 136.34-17.35Q135.00-18.60 135.00-20.76Q135.00-22.92 136.03-25.34Q137.06-27.77 138.84-29.86Q140.62-31.94 142.92-32.90L142.92-32.90Q144.02-33.38 145.03-33.38Q146.04-33.38 146.90-32.81L146.90-32.81Q147.72-32.14 147.72-31.32L147.72-31.32Q147.72-28.44 144.26-25.80L144.26-25.80Q143.21-24.98 141.29-24.34Q139.37-23.69 138.36-23.69ZM146.42-31.37L146.42-31.37Q146.42-32.33 145.66-32.33L145.66-32.33Q144.31-32.33 141.58-29.02L141.58-29.02Q139.94-27.00 138.70-24.50L138.70-24.50Q139.51-24.50 141.07-25.08Q142.63-25.66 143.78-26.62L143.78-26.62Q146.42-28.87 146.42-31.37ZM162.46-29.35L162.46-29.35Q162.46-27.24 161.35-24.70Q160.25-22.15 158.30-19.80Q156.36-17.45 153.58-16.58L153.58-16.58Q152.52-16.30 151.15-16.30Q149.78-16.30 148.15-17.16L148.15-17.16L143.59-5.78Q142.87-4.25 142.25-3.77Q141.62-3.29 141.05-3.29Q140.47-3.29 140.35-3.29Q140.23-3.29 139.49-3.43Q138.74-3.58 138.36-3.53L138.36-3.53Q139.42-4.54 143.71-13.10Q148.01-21.67 148.58-24.65L148.58-24.65Q148.06-23.88 147.58-23.83L147.58-23.83Q147.29-23.83 147.58-24.38Q147.86-24.94 148.54-26.52L148.54-26.52Q149.40-28.58 149.40-30.34Q149.40-32.09 148.73-32.38L148.73-32.38Q151.61-32.86 152.09-32.83Q152.57-32.81 152.69-32.42Q152.81-32.04 152.81-31.56L152.81-31.56Q152.81-28.63 151.46-25.03L151.46-25.03L152.42-26.57Q154.15-29.35 154.94-30.17Q155.74-30.98 156.65-31.85L156.65-31.85Q158.04-33.19 159.34-33.19L159.34-33.19Q159.72-33.19 160.06-33.10L160.06-33.10Q162.46-32.47 162.46-29.35ZM160.15-29.83L160.15-29.83Q160.15-30.60 159.84-31.25Q159.53-31.90 158.86-31.90L158.86-31.90Q157.18-31.90 154.94-28.78Q152.71-25.66 148.54-17.88L148.54-17.88Q149.16-17.26 150.26-17.26Q151.37-17.26 153.38-18.94L153.38-18.94Q156.60-21.62 158.76-25.61L158.76-25.61Q160.15-28.20 160.15-29.83ZM217.08-48.89L217.08-48.89Q217.08-50.57 215.54-52.06L215.54-52.06Q213.34-54.17 209.45-54.17L209.45-54.17Q206.04-54.17 201.91-52.68L201.91-52.68Q199.75-51.91 198.17-50.57L198.17-50.57Q195.72-48.46 195.72-46.34L195.72-46.34Q195.72-43.51 199.32-41.26L199.32-41.26Q200.66-40.44 204.72-38.59Q208.78-36.74 210.65-35.59L210.65-35.59Q213.48-33.86 214.56-31.90Q215.64-29.93 215.64-28.25L215.64-28.25Q215.64-25.85 214.06-23.35L214.06-23.35Q211.27-18.89 205.90-15.67L205.90-15.67Q199.70-11.93 190.97-11.93L190.97-11.93Q182.57-11.93 177.62-16.20L177.62-16.20Q173.78-19.46 173.78-24.60L173.78-24.60Q173.78-27.86 176.16-31.80Q178.54-35.74 181.99-37.37L181.99-37.37Q182.71-37.66 183.07-37.56Q183.43-37.46 182.47-36.65L182.47-36.65Q180.41-35.02 179.16-33.05L179.16-33.05Q176.47-28.82 176.47-23.88L176.47-23.88Q176.47-20.62 178.30-18.17L178.30-18.17Q181.56-13.80 189.62-13.22L189.62-13.22Q190.54-13.13 192.34-13.13Q194.14-13.13 197.23-13.78Q200.33-14.42 203.21-15.91L203.21-15.91Q209.40-19.18 211.22-24.36L211.22-24.36Q211.80-25.90 211.80-27.34L211.80-27.34Q211.80-30.60 208.87-33.10L208.87-33.10Q207.29-34.34 202.42-36.43Q197.54-38.52 195.86-39.62L195.86-39.62Q192.17-42.12 192.17-45.53L192.17-45.53Q192.17-48.50 195.48-51.34L195.48-51.34Q200.23-55.37 208.92-55.37L208.92-55.37Q213.00-55.37 215.57-54.14Q218.14-52.92 218.71-50.47L218.71-50.47Q218.81-49.99 218.81-49.51L218.81-49.51Q218.81-47.64 217.08-46.15L217.08-46.15Q215.88-45.19 213.86-44.62L213.86-44.62Q213.00-44.38 212.90-44.81L212.90-44.81Q212.81-45.43 214.10-45.58L214.10-45.58Q216.41-45.86 216.94-47.88L216.94-47.88Q217.08-48.41 217.08-48.89ZM226.44-34.97Q225.77-34.39 224.95-34.39Q224.14-34.39 223.66-34.97Q223.18-35.54 223.27-36.36L223.27-36.36Q223.42-37.18 224.09-37.75Q224.76-38.33 225.58-38.33Q226.39-38.33 226.90-37.75Q227.40-37.18 227.26-36.36Q227.11-35.54 226.44-34.97ZM221.74-17.35L221.74-17.35Q222.65-17.35 223.66-18.26L223.66-18.26Q225.43-20.04 228.17-25.51L228.17-25.51Q228.50-26.23 228.84-25.94L228.84-25.94Q228.94-25.85 228.94-25.63Q228.94-25.42 228.55-24.58Q228.17-23.74 227.86-23.06Q227.54-22.39 226.66-20.88Q225.77-19.37 225.05-18.55L225.05-18.55Q223.08-16.30 221.33-16.30Q219.58-16.30 218.81-17.35Q218.04-18.41 218.04-19.70Q218.04-21.00 218.66-22.54L218.66-22.54L221.74-30.36Q221.83-30.65 221.83-31.13Q221.83-31.61 221.26-32.38L221.26-32.38L223.90-32.42Q225.00-32.42 225.19-32.02Q225.38-31.61 224.90-30.74L224.90-30.74L221.06-21.77Q220.25-19.99 220.25-18.74L220.25-18.74Q220.25-17.35 221.74-17.35ZM242.71-32.04L242.71-32.04Q236.81-21.67 236.81-18.50L236.81-18.50Q236.81-17.26 237.72-17.26L237.72-17.26Q240.17-17.26 244.30-25.56L244.30-25.56Q244.58-26.23 244.87-26.09Q245.16-25.94 245.16-25.70Q245.16-25.46 244.97-25.13L244.97-25.13Q242.42-19.99 240.67-18.05Q238.92-16.10 237.17-16.10Q235.42-16.10 234.50-17.45L234.50-17.45Q234.02-18.07 234.02-19.15Q234.02-20.23 234.50-21.77Q234.98-23.30 237.14-26.76L237.14-26.76Q237.67-27.62 237.67-28.13Q237.67-28.63 236.86-28.63Q236.04-28.63 233.74-26.47L233.74-26.47Q230.28-23.30 227.06-16.97L227.06-16.97Q226.78-16.49 226.42-16.37Q226.06-16.25 225.00-16.20Q223.94-16.15 223.61-15.96L223.61-15.96Q224.38-17.50 226.63-22.25L226.63-22.25Q230.66-30.65 231.91-31.85L231.91-31.85Q232.49-32.42 233.50-32.42L233.50-32.42Q233.69-32.42 234.48-32.28Q235.27-32.14 235.66-32.23L235.66-32.23Q233.88-31.27 229.85-23.21L229.85-23.21Q232.10-25.99 233.95-27.65Q235.80-29.30 238.39-30.72Q240.98-32.14 242.18-32.14L242.18-32.14Q242.47-32.14 242.71-32.04ZM240.98-1.13L240.98-1.13Q236.47-1.13 236.47-4.82L236.47-4.82Q236.47-7.90 240.65-10.34L240.65-10.34Q244.20-12.41 249.72-14.23L249.72-14.23Q252.26-15.05 253.42-15.53L253.42-15.53Q254.66-19.18 254.66-23.50L254.66-23.50Q254.66-24.36 254.57-24.79L254.57-24.79Q253.22-22.06 250.87-19.18L250.87-19.18Q248.09-15.72 245.35-16.49L245.35-16.49Q242.86-17.54 242.86-20.62L242.86-20.62Q242.86-24.74 246.98-29.69L246.98-29.69Q249.24-32.38 252.26-33.10L252.26-33.10Q253.08-33.34 253.90-33.34L253.90-33.34Q256.06-33.34 258.12-31.90L258.12-31.90Q258.89-31.27 258.89-30.84Q258.89-30.41 258.60-30.00Q258.31-29.59 258.00-29.90Q257.69-30.22 257.59-30.50L257.59-30.50Q256.97-32.28 255.58-32.28L255.58-32.28Q253.03-32.28 249.86-28.73L249.86-28.73Q248.09-26.71 246.79-24.41L246.79-24.41Q245.21-21.53 245.21-19.97Q245.21-18.41 246.17-17.88L246.17-17.88Q246.50-17.74 246.84-17.74L246.84-17.74Q247.94-17.74 249.60-19.25Q251.26-20.76 252.67-23.09Q254.09-25.42 254.47-26.71Q254.86-28.01 255.41-28.34Q255.96-28.68 256.63-28.73Q257.30-28.78 257.54-28.97L257.54-28.97Q257.93-26.81 257.93-23.90Q257.93-21.00 256.92-17.30L256.92-17.30Q259.13-18.89 260.06-20.14Q261.00-21.38 261.55-22.39Q262.10-23.40 262.54-24.38Q262.97-25.37 263.11-25.66Q263.26-25.94 263.59-26.02Q263.93-26.09 263.93-25.70L263.93-25.70Q263.93-25.46 263.78-25.13L263.78-25.13Q261.67-20.76 260.26-18.82Q258.84-16.87 256.39-15.72L256.39-15.72Q255.24-12.46 253.06-9.24Q250.87-6.02 247.56-3.58Q244.25-1.13 240.98-1.13ZM237.48-3.91L237.48-3.91Q237.48-2.09 239.83-2.09L239.83-2.09Q241.22-2.09 242.98-2.90Q244.73-3.72 245.88-4.58L245.88-4.58Q247.85-6.17 250.20-9.29L250.20-9.29Q251.98-11.78 252.94-14.14L252.94-14.14L251.26-13.56Q243.77-10.97 240.70-8.95L240.70-8.95Q238.44-7.46 237.72-5.16L237.72-5.16Q237.48-4.44 237.48-3.91ZM271.66-18.46L271.66-18.46Q271.66-17.11 272.62-17.11L272.62-17.11Q274.87-17.11 279.00-25.56L279.00-25.56Q279.34-26.23 279.60-26.09Q279.86-25.94 279.86-25.70Q279.86-25.46 279.31-24.34Q278.76-23.21 278.21-22.18Q277.66-21.14 276.60-19.46L276.60-19.46Q274.39-16.10 271.90-16.10L271.90-16.10Q270.26-16.10 269.30-17.45L269.30-17.45Q268.87-18.07 268.87-19.15Q268.87-20.23 269.35-21.77Q269.83-23.30 271.99-26.76L271.99-26.76Q272.52-27.62 272.52-28.13Q272.52-28.63 271.70-28.63Q270.89-28.63 268.58-26.47L268.58-26.47Q265.13-23.30 261.86-16.97L261.86-16.97Q261.53-16.25 260.09-16.25L260.09-16.25Q258.79-16.15 258.46-15.96L258.46-15.96Q267.58-34.92 271.66-42.41L271.66-42.41Q272.57-44.09 273.26-44.76Q273.96-45.43 274.92-45.43L274.92-45.43Q275.16-45.43 275.93-45.31Q276.70-45.19 277.08-45.24L277.08-45.24Q275.64-43.75 271.92-37.01Q268.20-30.26 264.79-23.30L264.79-23.30Q267.05-26.14 268.85-27.72Q270.65-29.30 273.24-30.72Q275.83-32.14 277.03-32.14L277.03-32.14Q277.32-32.14 277.56-32.04L277.56-32.04Q271.66-21.67 271.66-18.46Z"></path></g></g></svg>